<?xml version="1.0" encoding="utf-8" ?>
<svg xmlns="http://www.w3.org/2000/svg" xmlns:xlink="http://www.w3.org/1999/xlink" width="259" height="299">
	<defs>
		<linearGradient id="gradient_0" gradientUnits="userSpaceOnUse" x1="48.854195" y1="300.48264" x2="186.86902" y2="7.8056459">
			<stop offset="0" stop-color="#6214B5"/>
			<stop offset="1" stop-color="#9D3DF0"/>
		</linearGradient>
	</defs>
	<path fill="url(#gradient_0)" d="M120.915 17.1427C127.761 17.5136 134.779 17.2099 141.638 17.2064L179.522 17.2073C188.619 17.195 198.64 16.343 207.513 18.4372C217.567 20.8099 226.309 25.8794 233.618 33.1165C240.848 40.2751 245.817 50.2907 247.811 60.2118C249.193 67.0879 248.835 74.2185 248.832 81.1949L248.817 105.414L248.95 193.097C248.963 197.718 249.114 202.512 248.57 207.108C247.234 218.394 241.512 229.539 233.523 237.536C226.622 244.444 217.156 249.823 207.675 252.163C199.745 254.121 191.89 254.057 183.794 254.093L165.603 254.139L103.875 254.068L77.5328 254.024C73.1117 254.007 66.6633 253.412 62.5241 254.364C59.3095 255.102 56.4082 258.145 53.7638 260.046Q44.4339 266.685 35.2379 273.509C30.9491 276.664 26.6065 280.287 21.88 282.739C18.8835 284.294 15.0876 284.45 11.8644 283.555C10.603 283.205 9.28948 282.257 8.33539 281.371C5.21289 278.473 5.17547 274.396 5.07277 270.427C4.74641 257.816 5.04769 245.163 4.99585 232.545L4.89659 134.265L4.90214 89.8032C4.90071 80.7556 4.24076 69.8686 5.77666 61.0895C7.5576 50.9097 12.5948 40.6254 19.7568 33.1217C26.4443 26.1152 35.5583 21.1061 44.9381 18.827C55.0671 16.3658 65.9909 17.2112 76.3547 17.2257C91.1867 17.2465 106.09 17.5219 120.915 17.1427Z"/>
	<path fill="#27113C" d="M194.77 62.9099C196.431 62.5681 200.668 62.199 202.174 62.9284C205.876 63.3438 209.757 64.7882 212.157 67.7522C213.342 69.2163 214.175 70.9954 214.665 72.8092C216.275 78.0167 213.703 84.794 211.448 89.4344C209.88 92.5494 208.202 95.7118 206.059 98.4757C204.326 101.358 196.982 111.508 194.52 113.316C193.792 114.256 193.093 115.246 192.203 116.039C191.677 116.754 191.145 117.644 190.395 118.127C190.084 119.84 191.212 121.777 191.345 123.533C192.078 126.658 192.053 130.081 191.962 133.271C191.611 145.568 188.596 157.507 182.073 168.027Q181.174 169.481 180.206 170.889Q179.237 172.296 178.2 173.655Q177.164 175.014 176.062 176.32Q174.96 177.627 173.795 178.878Q172.631 180.128 171.406 181.321Q170.182 182.513 168.901 183.644Q167.619 184.775 166.284 185.842Q164.949 186.908 163.563 187.908Q162.177 188.909 160.744 189.84Q159.311 190.771 157.834 191.63Q156.357 192.49 154.84 193.276Q153.322 194.063 151.768 194.774Q150.214 195.485 148.627 196.119Q147.04 196.753 145.424 197.309Q143.808 197.865 142.166 198.34Q140.525 198.816 138.862 199.211C132.454 200.703 118.298 202.028 111.974 199.994C104.913 199.296 96.3288 196.571 90.2145 193.143C88.2744 192.653 81.9134 195.997 79.7676 196.837C70.8734 200.316 60.6197 203.381 51.0314 203.301C45.7485 203.257 38.9576 202.505 35.0908 198.486C32.4859 195.778 31.3789 192.036 31.4485 188.342C31.7087 174.538 47.4237 156.95 57.0156 147.706C55.6957 140.421 54.8711 133.01 56.2338 125.656C56.722 119.744 58.4394 113.032 61.0874 107.742C61.1016 107.655 61.1203 107.519 61.1453 107.429C61.5188 106.071 62.4137 104.558 63.0674 103.305C67.5606 94.6934 73.7247 87.5018 81.1821 81.33C82.844 79.9546 84.6827 78.3801 86.5827 77.373C88.1928 76.1515 89.9886 75.1738 91.7318 74.1563C95.2054 72.2637 98.7471 70.7283 102.423 69.289C103.52 68.9303 104.609 68.6172 105.733 68.3542C106.815 67.8214 108.097 67.6245 109.274 67.4016C109.975 67.0825 110.755 67.003 111.509 66.8752C112.404 66.5539 113.388 66.499 114.329 66.3942C115.298 65.9575 116.888 66.0133 117.955 65.9383C124.216 65.1511 138.474 66.3099 143.946 69.0904C145.415 69.5331 146.921 69.9226 148.301 70.6051C149.543 71.0576 150.745 71.5222 151.935 72.1041C152.596 72.3981 153.4 72.6611 154.007 73.0414L158.333 75.2135C159.221 74.922 160.129 74.6539 160.986 74.2773C165.469 71.7193 170.767 69.948 175.601 68.1567C181.746 65.9543 188.239 63.5165 194.77 62.9099Z"/>
	<path fill="#10041A" d="M90.2145 193.143L90.402 192.675C91.9545 192.548 96.1116 194.697 97.7897 195.307C103.044 197.218 108.415 198.158 113.851 199.376L114.289 199.761L114.147 199.959C114.073 199.953 113.998 199.945 113.923 199.94C113.285 199.89 112.614 199.962 111.974 199.994C104.913 199.296 96.3288 196.571 90.2145 193.143Z"/>
	<path fill="#10041A" d="M175.601 68.1567C181.746 65.9543 188.239 63.5165 194.77 62.9099L193.767 63.8796C190.766 64.7102 187.755 65.434 184.778 66.3515C182.394 67.086 179.948 68.0764 177.532 68.6495C176.827 68.1764 176.436 68.2207 175.601 68.1567Z"/>
	<path d="M160.986 74.2773C165.469 71.7193 170.767 69.948 175.601 68.1567C176.436 68.2207 176.827 68.1764 177.532 68.6495C171.988 70.7634 166.382 72.785 161.049 75.4003L160.986 74.2773Z"/>
	<path fill="#10041A" d="M61.0874 107.742C61.2817 109.938 59.1914 116.666 58.5924 119.209C58.2819 120.527 58.1328 121.873 57.8754 123.202L57.6693 121.173L57.2949 121.235C57.0927 123.369 56.6445 125.484 56.5047 127.619L56.3927 127.744C56.3139 127.048 56.2727 126.356 56.2338 125.656C56.722 119.744 58.4394 113.032 61.0874 107.742Z"/>
	<path fill="#10041A" d="M202.174 62.9284C205.876 63.3438 209.757 64.7882 212.157 67.7522C213.342 69.2163 214.175 70.9954 214.665 72.8092L213.873 72.7705C212.781 71.973 211.951 69.4487 211.178 68.2393C209.553 65.696 205.57 64.6806 202.804 64.0202L202.174 62.9284Z"/>
	<path fill="#10041A" d="M91.7318 74.1563C95.2054 72.2637 98.7471 70.7283 102.423 69.289C102.863 69.54 103.338 69.7737 103.755 70.0603C100.072 71.4301 95.4475 72.924 92.2601 75.1718C91.8752 74.7812 91.8494 74.6956 91.7318 74.1563Z"/>
	<path fill="#1E0F2C" d="M114.329 66.3942C115.298 65.9575 116.888 66.0133 117.955 65.9383C118.48 65.9903 119.004 66.0431 119.53 66.0759L119.621 66.3571C117.9 66.8629 110.352 68.8163 108.898 68.9048L108.367 68.7652C108.64 68.4502 109.004 68.1744 109.316 67.8959L109.274 67.4016C109.975 67.0825 110.755 67.003 111.509 66.8752C112.404 66.5539 113.388 66.499 114.329 66.3942Z"/>
	<path fill="#10041A" d="M151.935 72.1041C152.596 72.3981 153.4 72.6611 154.007 73.0414L158.333 75.2135C159.221 74.922 160.129 74.6539 160.986 74.2773L161.049 75.4003Q160.46 75.7034 159.83 75.9051C157.527 76.6269 154.926 74.7772 152.958 73.7251L152.577 73.5497L151.698 72.6255L151.935 72.1041Z"/>
	<path fill="#1E0F2C" d="M194.77 62.9099C196.431 62.5681 200.668 62.199 202.174 62.9284L202.804 64.0202L200.856 63.648C198.464 63.5911 196.145 63.8253 193.767 63.8796L194.77 62.9099Z"/>
	<path fill="#10041A" d="M105.733 68.3542C106.815 67.8214 108.097 67.6245 109.274 67.4016L109.316 67.8959C109.004 68.1744 108.64 68.4502 108.367 68.7652Q106.679 69.2458 104.998 69.7489L103.755 70.0603C103.338 69.7737 102.863 69.54 102.423 69.289C103.52 68.9303 104.609 68.6172 105.733 68.3542Z"/>
	<path fill="#1E0F2C" d="M86.5827 77.373C88.1928 76.1515 89.9886 75.1738 91.7318 74.1563C91.8494 74.6956 91.8752 74.7812 92.2601 75.1718C90.9177 76.0959 89.4355 76.8591 88.0152 77.6597L87.7766 77.5651L88.4335 76.9C87.6426 77.0206 87.3407 77.8732 86.5827 77.373Z"/>
	<path fill="#10041A" d="M189.394 118.095L190.395 118.127C190.084 119.84 191.212 121.777 191.345 123.533L191.075 123.589L190.468 123.135C189.632 121.581 189.46 119.829 189.394 118.095Z"/>
	<path fill="#1E0F2C" d="M143.946 69.0904C145.415 69.5331 146.921 69.9226 148.301 70.6051L148.538 71.827C146.871 71.0783 145.334 70.5822 143.793 69.5677L143.946 69.0904Z"/>
	<path fill="#10041A" d="M148.301 70.6051C149.543 71.0576 150.745 71.5222 151.935 72.1041L151.698 72.6255L152.577 73.5497C151.239 72.9589 149.965 72.186 148.538 71.827L148.301 70.6051Z"/>
	<path fill="#1E0F2C" d="M190.127 116.949C190.433 116.618 190.776 116.182 191.18 115.972C191.629 115.739 191.762 115.868 192.203 116.039C191.677 116.754 191.145 117.644 190.395 118.127L189.394 118.095L190.127 116.949Z"/>
	<defs>
		<linearGradient id="gradient_1" gradientUnits="userSpaceOnUse" x1="80.7528" y1="169.36372" x2="143.52696" y2="78.779526">
			<stop offset="0" stop-color="#3C0976"/>
			<stop offset="1" stop-color="#6618BB"/>
		</linearGradient>
	</defs>
	<path fill="url(#gradient_1)" d="M68.609 149.463C67.0818 143.486 66.1892 137.646 66.3925 131.45C66.8828 116.5 73.9982 102.335 84.8501 92.19Q85.8988 91.218 86.9942 90.2988Q88.0895 89.3797 89.2289 88.5156Q90.3682 87.6516 91.5487 86.8447Q92.7292 86.0378 93.948 85.2901Q95.1669 84.5424 96.4211 83.8556Q97.6753 83.1689 98.9618 82.5448Q100.248 81.9207 101.564 81.3607Q102.88 80.8008 104.221 80.3063Q105.563 79.8119 106.928 79.3842Q108.292 78.9565 109.676 78.5965Q111.06 78.2365 112.46 77.9452Q113.86 77.6539 115.272 77.4319Q116.685 77.2099 118.107 77.0578Q119.528 76.9057 120.956 76.8238Q122.384 76.742 123.813 76.7306Q125.243 76.7191 126.672 76.7782C142.932 77.3742 158.752 85.9226 168.364 98.9848C169.825 100.97 171.255 103.004 172.345 105.22C172.858 106.261 173.413 108.312 174.188 109.102C174.214 109.129 174.242 109.154 174.269 109.179Q165.275 118.66 155.495 127.327Q145.715 135.995 135.222 143.784C133.819 144.818 131.337 147.067 129.716 147.558C129.035 147.529 128.644 147.754 128.093 148.107C121.493 152.323 115.164 157 108.578 161.255C104.542 163.862 100.278 166.21 96.1032 168.59C92.8982 170.417 89.5878 172.584 86.1238 173.849C84.9079 172.697 83.6842 171.384 82.3088 170.432L81.617 170.584C78.1239 168.891 71.4943 159.42 69.8984 155.898C69.2892 154.554 68.1275 150.754 68.609 149.463Z"/>
	<path fill="#10041A" d="M68.609 149.463C71.3282 157.93 75.9716 164.276 82.3088 170.432L81.617 170.584C78.1239 168.891 71.4943 159.42 69.8984 155.898C69.2892 154.554 68.1275 150.754 68.609 149.463Z"/>
	<defs>
		<linearGradient id="gradient_2" gradientUnits="userSpaceOnUse" x1="126.5522" y1="188.47293" x2="119.31448" y2="78.54921">
			<stop offset="0" stop-color="#691BC2"/>
			<stop offset="1" stop-color="#9B39E6"/>
		</linearGradient>
	</defs>
	<path fill="url(#gradient_2)" d="M202.3 72.6053C203.767 73.279 204.972 74.1112 205.565 75.6752C206.683 78.619 205.22 82.3838 203.957 85.0864C203.3 86.49 202.351 88.8996 201.076 89.8504C200.813 89.7312 200.757 89.7512 200.598 89.4952L200.509 89.6024C199.106 91.32 197.925 93.3111 196.665 95.1401Q193.492 99.7725 189.943 104.124C175.125 122.056 157.53 138.124 138.908 152.053Q129.883 158.895 120.345 165.002C118.282 166.332 109.301 171.394 108.157 172.591L108.238 172.969Q107.019 173.801 105.748 174.55L108.217 173.736L108.355 173.81C106.101 175.425 103.257 176.996 100.716 178.104C100.157 178.365 99.4524 178.797 98.868 178.955C93.9639 181.727 88.9339 183.959 83.7628 186.175C81.796 187.661 68.9425 192.066 66.1196 192.494C67.2792 191.657 68.7052 191.397 70.0661 191.029C68.2682 190.809 66.7951 192.121 64.8939 191.81C61.8515 192.474 58.8303 193.277 55.7331 193.649C52.0557 194.09 46.1355 194.342 43.0964 191.869C41.9847 190.964 41.3482 189.724 41.2254 188.3C40.599 181.036 51.355 168.02 56.1483 162.327L55.6939 162.256C55.7016 162.045 55.706 161.892 55.7764 161.69C56.1292 160.678 57.1633 158.822 58.1471 158.332L58.0807 159.416L59.1647 158.322L59.516 158.813L60.0043 158.518C60.7473 158.543 61.2198 160.117 61.5491 160.796C65.2265 168.379 70.1415 173.996 76.273 179.666C79.774 178.044 83.3492 176.491 86.7737 174.716C101.847 166.902 115.862 157.304 129.716 147.558C131.337 147.067 133.819 144.818 135.222 143.784Q145.715 135.995 155.495 127.327Q165.275 118.66 174.269 109.179C177.054 105.992 180.175 102.824 182.079 99.0173C181.57 98.12 181.087 97.2392 180.411 96.4539L179.997 96.6125C178.94 96.0067 171.223 86.7273 169.932 85.1123C169.339 84.3698 168.509 83.5898 168.619 82.6275L168.794 82.0978L170.272 81.3389L169.527 80.4396C170.418 80.1165 171.272 79.6754 172.17 79.3478C174.687 78.2345 177.203 77.2044 179.789 76.2621C181.548 75.6152 183.398 75.2106 185.118 74.4668L185.533 74.4276C186.467 74.3926 187.245 74.3723 188.14 74.675C189.738 74.3641 191.324 73.9769 192.911 73.6136C196.033 73.1945 199.374 72.4544 202.402 73.6263L202.3 72.6053Z"/>
	<path fill="#10041A" d="M64.8939 191.81Q74.1036 189.023 83.0113 185.385L83.7628 186.175C81.796 187.661 68.9425 192.066 66.1196 192.494C67.2792 191.657 68.7052 191.397 70.0661 191.029C68.2682 190.809 66.7951 192.121 64.8939 191.81Z"/>
	<path fill="#10041A" d="M83.0113 185.385C88.2235 183.055 93.2926 180.511 98.4519 178.079C98.6169 178.369 98.792 178.627 98.868 178.955C93.9639 181.727 88.9339 183.959 83.7628 186.175L83.0113 185.385Z"/>
	<path fill="#1E0F2C" d="M168.619 82.6275C171.11 83.9202 179.105 93.9097 180.411 96.4539L179.997 96.6125C178.94 96.0067 171.223 86.7273 169.932 85.1123C169.339 84.3698 168.509 83.5898 168.619 82.6275Z"/>
	<path fill="#1E0F2C" d="M202.3 72.6053C203.767 73.279 204.972 74.1112 205.565 75.6752C206.683 78.619 205.22 82.3838 203.957 85.0864C203.3 86.49 202.351 88.8996 201.076 89.8504C200.813 89.7312 200.757 89.7512 200.598 89.4952C202.436 86.0536 205.801 80.5673 204.848 76.5003C204.515 75.0761 203.591 74.3668 202.402 73.6263L202.3 72.6053Z"/>
	<path fill="#1E0F2C" d="M101.22 176.567C103.01 175.012 106.024 173.74 108.157 172.591L108.238 172.969Q107.019 173.801 105.748 174.55L108.217 173.736L108.355 173.81C106.101 175.425 103.257 176.996 100.716 178.104C101.05 177.717 101.314 177.366 101.537 176.905L101.22 176.567Z"/>
	<path fill="#10041A" d="M179.789 76.2621L179.891 77.3174C177.545 78.2449 175.185 79.1467 172.875 80.1605L172.17 79.3478C174.687 78.2345 177.203 77.2044 179.789 76.2621Z"/>
	<path fill="#1E0F2C" d="M185.533 74.4276C186.467 74.3926 187.245 74.3723 188.14 74.675L185.845 75.3788C183.84 75.9783 181.86 76.6076 179.891 77.3174L179.789 76.2621C181.548 75.6152 183.398 75.2106 185.118 74.4668L185.533 74.4276Z"/>
	<path fill="#1E0F2C" d="M56.1483 162.327L55.6939 162.256C55.7016 162.045 55.706 161.892 55.7764 161.69C56.1292 160.678 57.1633 158.822 58.1471 158.332L58.0807 159.416L59.1647 158.322L59.516 158.813C58.4884 159.899 57.3333 161.462 56.1483 162.327Z"/>
	<path fill="#10041A" d="M98.4519 178.079C99.0173 177.431 100.43 176.954 101.22 176.567L101.537 176.905C101.314 177.366 101.05 177.717 100.716 178.104C100.157 178.365 99.4524 178.797 98.868 178.955C98.792 178.627 98.6169 178.369 98.4519 178.079Z"/>
	<path fill="#1E0F2C" d="M169.527 80.4396C170.418 80.1165 171.272 79.6754 172.17 79.3478L172.875 80.1605L170.272 81.3389L169.527 80.4396Z"/>
	<path fill="#480E86" d="M101.577 186.903C104.777 184.925 108.184 183.199 111.468 181.355C116.782 178.369 122.085 175.225 127.185 171.884C146.808 159.031 164.18 143.417 181.266 127.44C181.868 134.754 181.215 141.322 179.625 148.457Q179.695 149.085 179.752 149.715C179.961 151.993 178.027 157.025 176.452 158.729C176.147 159.059 176.018 159.122 175.592 159.255L175.37 159.167C171.344 166.19 166.719 172.535 160.344 177.653C158.48 179.149 155.156 180.789 153.664 182.384L153.708 182.784C152.671 183.475 151.588 183.991 150.727 184.908L151.949 184.274C150.819 185.164 149.554 186.283 148.09 186.501L147.876 186.348L148.279 185.765C147.825 185.968 147.403 186.229 146.895 186.12L146.762 186.004C143.824 186.545 140.887 188.271 137.907 189.001C125.584 192.022 113.473 191.06 101.577 186.903Z"/>
	<path fill="#10041A" d="M179.625 148.457Q179.695 149.085 179.752 149.715C179.961 151.993 178.027 157.025 176.452 158.729C176.147 159.059 176.018 159.122 175.592 159.255L175.37 159.167C177.028 155.664 178.465 152.16 179.625 148.457Z"/>
	<path fill="#1E0F2C" d="M153.664 182.384L153.708 182.784C152.671 183.475 151.588 183.991 150.727 184.908L151.949 184.274C150.819 185.164 149.554 186.283 148.09 186.501L147.876 186.348L148.279 185.765C147.825 185.968 147.403 186.229 146.895 186.12L146.762 186.004C148.671 184.564 151.508 183.532 153.664 182.384Z"/>
	<path fill="#27113C" d="M198.959 174.11C199.728 174.741 200.677 178.698 201.28 179.983C202.249 182.046 203.422 183.993 204.904 185.731C208.575 190.033 212.77 191.989 218.359 192.439C215.519 193.505 212.865 194.587 210.381 196.37C204.421 200.647 200.762 206.943 199.58 214.153L199.488 214.254C199.304 214.178 197.05 208.078 196.72 207.371C193.272 199.982 188.031 195.43 180.462 192.7C182.996 192.051 185.439 191.365 187.736 190.073C194.086 186.502 197.083 180.862 198.959 174.11Z"/>
</svg>
